<svg xmlns="http://www.w3.org/2000/svg" width="160" height="58.679" viewBox="0 0 160 58.679">
  <g id="Grupo_99" data-name="Grupo 99" transform="translate(-2840 -7715.956)">
    <g id="Grupo_98" data-name="Grupo 98">
      <g id="Grupo_97" data-name="Grupo 97">
        <path id="Trazado_792" data-name="Trazado 792" d="M2918.841,7739.464a3.976,3.976,0,0,0,3.038-1.3,4.156,4.156,0,0,0,1.014-2.766,3.929,3.929,0,0,0-4.052-4.065,3.979,3.979,0,0,0-3.038,1.3,4.161,4.161,0,0,0-1.015,2.767A3.93,3.93,0,0,0,2918.841,7739.464Z" fill="#fff"/>
        <path id="Trazado_793" data-name="Trazado 793" d="M2858.537,7729.731q0-6.781-6.254-6.782a7.429,7.429,0,0,0-3.093.633,4.91,4.91,0,0,0-2.073,1.58v-9.206h-7.029v.7h1.758V7738.8h-1.758v.7h8.785v-.7h-1.756v-12.334a3.589,3.589,0,0,1,3.2-2.109,2.526,2.526,0,0,1,2.214,1.054,6.413,6.413,0,0,1,.738,3.55v9.839h-1.757v.7h8.786v-.7h-1.758Z" fill="#fff"/>
        <path id="Trazado_794" data-name="Trazado 794" d="M2865.6,7737.672a9.392,9.392,0,0,0,6.043,2.18,9.766,9.766,0,0,0,6.009-2,7.048,7.048,0,0,0,2.144-2.636,8.444,8.444,0,0,0,.808-3.76,8.672,8.672,0,0,0-.808-3.8,7.062,7.062,0,0,0-2.126-2.67,10.075,10.075,0,0,0-2.846-1.494,9.787,9.787,0,0,0-3.109-.509,9.617,9.617,0,0,0-3.093.509,10.119,10.119,0,0,0-2.829,1.494,6.914,6.914,0,0,0-2.108,2.67,8.911,8.911,0,0,0-.791,3.831A7.478,7.478,0,0,0,2865.6,7737.672Zm3.444-12.176a2.71,2.71,0,0,1,2.671-1.81,2.773,2.773,0,0,1,2.7,1.81,15.74,15.74,0,0,1,.809,5.939,15.579,15.579,0,0,1-.809,5.921,2.772,2.772,0,0,1-2.7,1.792,2.709,2.709,0,0,1-2.671-1.774,16.151,16.151,0,0,1-.773-5.921A16.466,16.466,0,0,1,2869.044,7725.5Z" fill="#fff"/>
        <path id="Trazado_795" data-name="Trazado 795" d="M2892.341,7738.8h-1.756v-22.842h-7.029v.7h1.758V7738.8h-1.758v.7h8.785Z" fill="#fff"/>
        <path id="Trazado_796" data-name="Trazado 796" d="M2910.648,7738.252a3.787,3.787,0,0,1-.456-2.337v-6.324q0-3.656-1.563-5.1t-5.237-1.44a9.7,9.7,0,0,0-5.517,1.282,3.7,3.7,0,0,0-1.844,3.074,2.487,2.487,0,0,0,.772,1.846,2.546,2.546,0,0,0,1.845.755,2.578,2.578,0,0,0,2.583-2.6,4.322,4.322,0,0,0-.245-1.229c-.165-.516-.281-.931-.352-1.248a.852.852,0,0,1,.281-.843,2.728,2.728,0,0,1,1.739-.369,1.778,1.778,0,0,1,1.81,1.054,12.06,12.06,0,0,1,.457,4.111v1.722l-1.406.176q-4.567.527-6.395,1.81a4.183,4.183,0,0,0-1.828,3.636,3.059,3.059,0,0,0,1.248,2.654,5.317,5.317,0,0,0,3.181.9q3.617,0,5.376-1.828.736,1.723,3.62,1.722a8.885,8.885,0,0,0,2.284-.263,3.08,3.08,0,0,0,1.335-.615v-.351Q2911.1,7738.728,2910.648,7738.252Zm-5.727-1a2.34,2.34,0,0,1-1.88,1.054,2.739,2.739,0,0,1-1.88-.72,3.2,3.2,0,0,1-.984-2.056,3.477,3.477,0,0,1,.861-2.846,4.333,4.333,0,0,1,2.619-1.23l1.264-.176Z" fill="#fff"/>
      </g>
    </g>
    <path id="Trazado_797" data-name="Trazado 797" d="M2854.611,7751.858q-2.228-.727-4.48-1.314a14.582,14.582,0,0,1-3.823-1.524,2.67,2.67,0,0,1-1.572-2.252,2.632,2.632,0,0,1,1.267-2.205,5.548,5.548,0,0,1,3.26-.891,13.987,13.987,0,0,1,3.519.4q1.524.4,1.524,1.2a2.165,2.165,0,0,1-.7,1.243,2.744,2.744,0,0,0-.751,1.759,2.1,2.1,0,0,0,.821,1.736,3.067,3.067,0,0,0,2.2.7,2.111,2.111,0,0,0,1.923-1.126,3.676,3.676,0,0,0,.4-2.346,4.387,4.387,0,0,0-2.628-3.284,13.4,13.4,0,0,0-6.169-1.22,10.9,10.9,0,0,0-6.427,1.83,6.3,6.3,0,0,0-2.886,4.645,5.731,5.731,0,0,0,1.243,4.551,8.848,8.848,0,0,0,3.847,2.533q2.324.8,4.715,1.407a16.467,16.467,0,0,1,4.082,1.572,2.822,2.822,0,0,1,1.689,2.463q0,2.673-4.879,2.674a17.888,17.888,0,0,1-4.669-.587q-2.181-.584-2.181-1.524a2.169,2.169,0,0,1,.705-1.243,2.754,2.754,0,0,0,.749-1.76,2.1,2.1,0,0,0-.821-1.735,3.043,3.043,0,0,0-2.181-.705,2.148,2.148,0,0,0-1.923,1.127,3.561,3.561,0,0,0-.422,2.346q.281,2.2,3.166,3.611a17.243,17.243,0,0,0,7.53,1.408q4.644,0,6.942-1.947a6.448,6.448,0,0,0,2.3-5.184,5.511,5.511,0,0,0-1.57-4.034A9.317,9.317,0,0,0,2854.611,7751.858Z" fill="#fff"/>
    <path id="Trazado_798" data-name="Trazado 798" d="M2882.919,7763.118q-.609-.635-.61-3.12v-8.445q0-4.879-2.087-6.8t-6.991-1.924q-4.9,0-7.365,1.713a4.942,4.942,0,0,0-2.462,4.1,3.307,3.307,0,0,0,1.032,2.462,3.392,3.392,0,0,0,2.462,1.009,3.446,3.446,0,0,0,3.449-3.471,5.788,5.788,0,0,0-.329-1.643q-.328-1.031-.468-1.665a1.131,1.131,0,0,1,.374-1.126,3.644,3.644,0,0,1,2.323-.493,2.371,2.371,0,0,1,2.415,1.408,16.1,16.1,0,0,1,.611,5.489v2.3l-1.877.234q-6.1.7-8.538,2.417a5.582,5.582,0,0,0-2.44,4.855,4.079,4.079,0,0,0,1.665,3.542,7.1,7.1,0,0,0,4.246,1.2q4.831,0,7.177-2.44.987,2.3,4.833,2.3a11.84,11.84,0,0,0,3.05-.351,4.133,4.133,0,0,0,1.783-.821v-.469Q2883.528,7763.751,2882.919,7763.118Zm-7.646-1.337a3.123,3.123,0,0,1-2.51,1.407,3.648,3.648,0,0,1-2.51-.962,4.271,4.271,0,0,1-1.315-2.744,4.652,4.652,0,0,1,1.15-3.8,5.785,5.785,0,0,1,3.5-1.642l1.689-.235Z" fill="#fff"/>
    <path id="Trazado_799" data-name="Trazado 799" d="M2901.219,7742.64q-4.128,0-5.723,2.721V7743.2h-9.383v.939h2.345v30.494h9.383v-.938H2895.5v-11.072a4.9,4.9,0,0,0,2.44,2.392,8.349,8.349,0,0,0,3.612.8,8.489,8.489,0,0,0,6.614-3.1q2.721-3.1,2.721-8.586t-2.767-8.491A9,9,0,0,0,2901.219,7742.64Zm1.08,18.765q-1.457,2.348-3.5,2.346t-3.307-2.534v-7.74q0-5.208.7-7.084a2.874,2.874,0,0,1,3-1.877,3.663,3.663,0,0,1,3.426,2.088q1.124,2.088,1.125,7.271T2902.3,7761.4Z" fill="#fff"/>
    <path id="Trazado_800" data-name="Trazado 800" d="M2922.735,7743.2h-8.915v.938h1.877v19.7h-2.345v.938h11.728v-.938h-2.345Z" fill="#fff"/>
    <path id="Trazado_801" data-name="Trazado 801" d="M2945.413,7745.736a10.085,10.085,0,0,0-7.461-3,11.191,11.191,0,0,0-7.623,2.745q-3.143,2.744-3.144,8.421a13.794,13.794,0,0,0,1.056,5.677,7.767,7.767,0,0,0,2.932,3.518,13.345,13.345,0,0,0,3.847,1.665,18.3,18.3,0,0,0,4.434.493,11.926,11.926,0,0,0,4.949-1.125,7.517,7.517,0,0,0,3.518-2.862l-.656-.469a5.983,5.983,0,0,1-2.979,2.111,10.711,10.711,0,0,1-3.636.75q-5.958,0-6.427-8.257h14.168Q2948.391,7748.739,2945.413,7745.736Zm-11.237,8.726v-.516a26.072,26.072,0,0,1,.892-7.155q.889-3.119,2.908-3.119t2.933,3.237a27.934,27.934,0,0,1,.914,7.553Z" fill="#fff"/>
    <path id="Trazado_802" data-name="Trazado 802" d="M2975.423,7751.741q0-9.054-8.351-9.055a9.769,9.769,0,0,0-4.1.868,6.909,6.909,0,0,0-2.791,2.088v-2.44h-9.383v.939h2.345v19.7h-2.345v.938h11.728v-.938h-2.345v-16.467a4.793,4.793,0,0,1,4.269-2.815,3.371,3.371,0,0,1,2.956,1.407,8.567,8.567,0,0,1,.984,4.739v13.136h-2.345v.938h11.728v-.938h-2.345Z" fill="#fff"/>
    <path id="Trazado_803" data-name="Trazado 803" d="M2998.43,7754.181a9.32,9.32,0,0,0-3.8-2.323q-2.227-.727-4.48-1.314a14.589,14.589,0,0,1-3.823-1.524,2.668,2.668,0,0,1-1.572-2.252,2.63,2.63,0,0,1,1.267-2.205,5.544,5.544,0,0,1,3.259-.891,13.989,13.989,0,0,1,3.52.4q1.524.4,1.524,1.2a2.171,2.171,0,0,1-.7,1.243,2.742,2.742,0,0,0-.751,1.759,2.1,2.1,0,0,0,.821,1.736,3.068,3.068,0,0,0,2.205.7,2.112,2.112,0,0,0,1.923-1.126,3.676,3.676,0,0,0,.4-2.346,4.387,4.387,0,0,0-2.628-3.284,13.4,13.4,0,0,0-6.169-1.22,10.9,10.9,0,0,0-6.427,1.83,6.3,6.3,0,0,0-2.886,4.645,5.726,5.726,0,0,0,1.243,4.551,8.845,8.845,0,0,0,3.847,2.533q2.324.8,4.715,1.407a16.482,16.482,0,0,1,4.082,1.572,2.824,2.824,0,0,1,1.689,2.463q0,2.673-4.879,2.674a17.887,17.887,0,0,1-4.669-.587q-2.181-.584-2.182-1.524a2.168,2.168,0,0,1,.7-1.243,2.755,2.755,0,0,0,.75-1.76,2.1,2.1,0,0,0-.821-1.735,3.047,3.047,0,0,0-2.182-.705,2.148,2.148,0,0,0-1.922,1.127,3.56,3.56,0,0,0-.423,2.346q.282,2.2,3.166,3.611a17.243,17.243,0,0,0,7.53,1.408q4.644,0,6.943-1.947a6.451,6.451,0,0,0,2.3-5.184A5.511,5.511,0,0,0,2998.43,7754.181Z" fill="#fff"/>
  </g>
</svg>
